<svg height="496pt" viewBox="0 -32 496.032 496" width="496pt" xmlns="http://www.w3.org/2000/svg"><path d="m8.03125 152.015625v256c.027344 8.824219 7.175781 15.972656 16 16h448c8.828125-.027344 15.972656-7.175781 16-16v-256l-240 144zm80 240" fill="#57a4ff"/><g fill="#004fac"><path d="m495.816406 150.503906c-.070312-.339844-.167968-.675781-.289062-1-.121094-.378906-.277344-.746094-.457032-1.097656-.050781-.171875-.113281-.34375-.183593-.511719-.054688-.105469-.167969-.152343-.230469-.257812-.183594-.261719-.386719-.515625-.609375-.75-.269531-.320313-.566406-.617188-.886719-.886719-.234375-.222656-.488281-.425781-.753906-.609375-.101562-.0625-.148438-.175781-.253906-.230469l-240-144c-2.535156-1.523437-5.703125-1.523437-8.242188 0l-240 144c-.09375.054688-.148437.160156-.246094.230469-.28125.1875-.546874.390625-.800781.617187-.3125.269532-.609375.5625-.878906.878907-.21875.238281-.421875.488281-.609375.75-.0625.105469-.175781.152343-.230469.257812-.074219.167969-.132812.34375-.183593.519531-.175782.347657-.328126.710938-.457032 1.082032-.121094.328125-.214844.664062-.289062 1.007812-.054688.320313-.09375.648438-.109375.972656 0 .1875-.105469.347657-.105469.539063v256c0 13.253906 10.746094 24 24 24h448.03125c13.253906 0 24-10.746094 24-24v-256c0-.191406-.09375-.351563-.101562-.539063-.019532-.324218-.054688-.652343-.113282-.972656zm-247.785156-133.160156 224.449219 134.671875-224.449219 134.671875-224.445312-134.671875zm224 398.671875h-448c-4.417969 0-8-3.582031-8-8v-241.875l227.878906 136.730469c2.539063 1.523437 5.707032 1.523437 8.242188 0l227.878906-136.730469v241.875c0 4.417969-3.582031 8-8 8zm0 0"/><path d="m56.03125 384.015625h-8v-24c0-4.417969-3.582031-8-8-8s-8 3.582031-8 8v32c0 4.417969 3.582031 8 8 8h16c4.417969 0 8-3.582031 8-8s-3.582031-8-8-8zm0 0"/><path d="m104.03125 384.015625h-16c-4.417969 0-8 3.582031-8 8s3.582031 8 8 8h16c4.417969 0 8-3.582031 8-8s-3.582031-8-8-8zm0 0"/></g></svg>