<svg xmlns="http://www.w3.org/2000/svg" xmlns:xlink="http://www.w3.org/1999/xlink" viewBox="0 0 690.1 838.62"><defs><style>.cls-1,.cls-3{opacity:0.44;}.cls-1{fill:url(#linear-gradient);}.cls-10,.cls-2{fill:#073669;}.cls-3{fill:url(#linear-gradient-2);}.cls-4{fill:#c7dafb;}.cls-4,.cls-7{opacity:0.47;}.cls-5{opacity:0.1;}.cls-6{fill:#3fa9f5;}.cls-7{fill:#7ac943;}.cls-22,.cls-8{fill:#c7daf2;}.cls-10,.cls-11,.cls-18,.cls-19,.cls-8,.cls-9{fill-rule:evenodd;}.cls-14,.cls-9{fill:#fff;}.cls-11{fill:#f0f4ff;}.cls-12{fill:#d2e6f9;}.cls-13{fill:url(#linear-gradient-3);}.cls-15{fill:url(#linear-gradient-4);}.cls-16{fill:#11345e;}.cls-17{fill:url(#linear-gradient-5);}.cls-18{fill:#d1d4eb;}.cls-19{fill:url(#linear-gradient-6);}.cls-20{fill:#c8e6eb;}.cls-21{fill:#9ebbdb;}.cls-23{fill:#fcae6e;}.cls-24{fill:#f29955;}.cls-25{fill:#111b33;}.cls-26{fill:url(#linear-gradient-7);}.cls-27{fill:#1b2851;}.cls-28{fill:#033f75;}.cls-29{fill:url(#linear-gradient-8);}.cls-30{fill:none;stroke-miterlimit:10;stroke-width:4px;stroke:url(#linear-gradient-9);}.cls-31{fill:url(#linear-gradient-10);}</style><linearGradient id="linear-gradient" x1="239.6" y1="712.25" x2="367.13" y2="712.25" gradientUnits="userSpaceOnUse"><stop offset="0" stop-color="#ae53fc"/><stop offset="1" stop-color="#3b48ed"/></linearGradient><linearGradient id="linear-gradient-2" x1="347.5" y1="649.5" x2="435.61" y2="649.5" xlink:href="#linear-gradient"/><linearGradient id="linear-gradient-3" x1="222.05" y1="496.11" x2="311.17" y2="496.11" gradientUnits="userSpaceOnUse"><stop offset="0" stop-color="#7ac943"/><stop offset="1" stop-color="#3fa9f5"/></linearGradient><linearGradient id="linear-gradient-4" x1="224.8" y1="400.74" x2="281.86" y2="400.74" xlink:href="#linear-gradient-3"/><linearGradient id="linear-gradient-5" x1="366.86" y1="486.2" x2="502.41" y2="486.2" xlink:href="#linear-gradient-3"/><linearGradient id="linear-gradient-6" x1="513.69" y1="183.65" x2="686.77" y2="183.65" xlink:href="#linear-gradient-3"/><linearGradient id="linear-gradient-7" x1="213.3" y1="617.02" x2="245.75" y2="617.02" xlink:href="#linear-gradient"/><linearGradient id="linear-gradient-8" x1="250.3" y1="66.29" x2="274.91" y2="66.29" xlink:href="#linear-gradient-3"/><linearGradient id="linear-gradient-9" x1="585.58" y1="42.73" x2="614.19" y2="42.73" xlink:href="#linear-gradient-3"/><linearGradient id="linear-gradient-10" x1="127.58" y1="160.72" x2="176.52" y2="160.72" xlink:href="#linear-gradient"/></defs><g id="Layer_2" data-name="Layer 2"><g id="Layer_1-2" data-name="Layer 1"><g id="LoginImageSprite"><path class="cls-1" d="M266.09,698.25l-19.35-3-7.14,15.38,19.37,3a18.07,18.07,0,0,0,4.75,10.26l-14.17,8.18,19.5,11.25,14.17-8.18A71.46,71.46,0,0,0,301,737.89l5.19,11.18L332.81,745l-5.19-11.18a41.84,41.84,0,0,0,13-7.51l19.36,3,7.14-15.37-19.37-3A18.07,18.07,0,0,0,343,700.62l14.17-8.18-19.5-11.25-14.17,8.18a71.46,71.46,0,0,0-17.77-2.75l-5.19-11.18-26.63,4.12,5.19,11.18A42,42,0,0,0,266.09,698.25Zm21.48,4.88c8.72-5,22.87-5,31.59,0s8.73,13.21,0,18.25-22.87,5-31.59,0S278.84,708.17,287.57,703.13Z"/><path class="cls-2" d="M285.06,719.65c-6.11-5-5.28-12,2.51-16.52,10.65-8,46.57-3,35.82,14.85-9.56-9.72-30.49-9.73-40.05,0A14.4,14.4,0,0,0,285.06,719.65Z"/><path class="cls-2" d="M334.81,730.41a35.28,35.28,0,0,0,5.82-4.15l19.36,3L367.08,714h.05l-.05.11h.05l-.05.11h.05l-.05.1h.05l-.05.11h.05l-.05.11h.05l-.05.1h.05l-.05.11h.05l-.05.11h.05l-.05.1h.05l-.05.11h.05l-.05.11h.05l-.05.1h.05l-.05.11h.05l-.05.11h.05l-.05.1h.05l-.05.11h.05l-.05.11h.05l-.05.1h.05l-.05.11h.05l-.05.11h.05l-.05.1h.05l-.05.11h.05l-.05.11h.05l-.05.1h.05l-.05.11h.05l-.05.11h.05l-.05.1h.05l-.05.11h.05l-.05.11h.05l-.05.1h.05l-.05.11h.05l-.05.1h.05l-.05.1h.05l-.05.11h.05l-.05.1h.05l-.05.1h.05l-.05.11h.05l-.05.1h.05l-.05.1h.05l-.05.11h.05l-.05.1h.05l-.05.1h.05l-.05.11h.05l-.05.1h.05l-.05.1h.05l-.05.11h.05l-.05.1h.05l-.05.1h.05l-.05.11h.05l-.05.1h.05l-.05.1h.05l-.05.11h.05l-.05.1h.05l-.05.1h.05l-.05.11h.05l-.05.1h.05l-.05.1h.05l-.05.11h.05l-.05.1h.05l-.05.1h.05l-.05.11h.05l-.05.1h.05l-.05.1h.05l-.05.11h.05l-.05.1h.05l-.05.1h.05l-.05.11h.05l-.05.1h.05l-.05.1h.05l-.05.11h.05l-.05.1h.05l-.05.1h.05l-.05.11h.05l-.05.1h.05l-.05.1h.05l-.05.11h.05l-.05.1h.05l-.05.1h.05l-.05.11h.05l-.05.1h.05l-.05.1h.05l-.05.11h.05l-.05.1h.05l-.05.1h.05l-.05.11h.05l-.05.1h.05l-.05.1h.05l-.05.11h.05l-.05.1h.05l-.05.11h.05l-.05.11h.05l-.05.1h.05l-.05.1h.05l-.05.11h.05l-.05.1h.05l-.05.1h.05l-.05.11h.05l-.05.1h.05l-.05.11h.05l-.05.11h.05L360,740.7l-19.36-3a38.27,38.27,0,0,1-8.58,5.6l.76,1.64-5.19-11.18A48.87,48.87,0,0,0,334.81,730.41Z"/><path class="cls-2" d="M269.05,743.32l14.17-8.18A71.46,71.46,0,0,0,301,737.89l5.19,11.18L332.81,745h-.05l.05.11h-.05l.05.1h-.05l.05.11h-.05l.05.11h-.05l.05.1h-.05l.05.11h-.05l.05.11h-.05l.05.1h-.05l.05.11h-.05l.05.11h-.05l.05.1h-.05l.05.11h-.05l.05.11h-.05l.05.1h-.05l.05.11h-.05l.05.11h-.05l.05.1h-.05l.05.11h-.05l.05.11h-.05l.05.1h-.05l.05.11h-.05l.05.11h-.05l.05.1h-.05l.05.11h-.05l.05.11h-.05l.05.1h-.05l.05.11h-.05l.05.11h-.05l.05.1h-.05l.05.11h-.05l.05.11h-.05l.05.1h-.05l.05.11h-.05l.05.11h-.05l.05.1h-.05l.05.11h-.05l.05.11h-.05l.05.1h-.05l.05.11h-.05l.05.11h-.05l.05.1h-.05l.05.11h-.05l.05.11h-.05l.05.1h-.05l.05.11h-.05l.05.11h-.05l.05.1h-.05l.05.11h-.05l.05.11h-.05l.05.1h-.05l.05.11h-.05l.05.11h-.05l.05.1h-.05l.05.11h-.05l.05.11h-.05l.05.1h-.05l.05.11h-.05l.05.11h-.05l.05.1h-.05l.05.11h-.05l.05.11h-.05l.05.1h-.05l.05.11h-.05l.05.11h-.05l.05.1h-.05l.05.11h-.05l.05.11h-.05l.05.1h-.05l.05.11h-.05l.05.1h-.05l.05.1h-.05l.05.11h-.05l.05.11h-.05l.05.1h-.05l.05.11h-.05l.05.1h-.05l.05.1h-.05l.05.11h-.05l.05.1h-.05l.05.1h-.05l.05.11h-.05l.05.1h-.05l.05.1h-.05l.05.11h-.05l.05.1h-.05l.05.1h-.05l.05.11h-.05l.05.1h-.05l.05.1h-.05l.05.11h-.05l.05.1h-.05l.05.1h-.05l.05.11h-.05l.05.1h-.05l.05.1h-.05l.05.11h-.05l.05.1h-.05l.05.1h-.05l.05.11h-.05l.05.1h-.05l.05.1-26.63,4.12L301,749.33a71,71,0,0,1-17.77-2.74l-14.17,8.18-19.5-11.26.1,0-.1-.06.1-.06-.1-.05.1-.06-.1-.06.1,0-.1-.06.1-.06-.1,0,.1-.06-.1-.06.1-.05-.1-.06.1-.06-.1,0,.1-.06-.1-.06.1,0-.1-.06.1-.06-.1-.05.1-.06-.1-.06.1,0-.1-.06.1-.06-.1-.05.1-.06-.1-.06.1,0-.1-.06.1-.06-.1,0,.1-.06-.1-.06.1-.05-.1-.06.1-.06-.1,0,.1-.06-.1-.06.1,0-.1-.06.1-.06-.1-.05.1-.06-.1-.06.1,0-.1-.06.1-.06-.1,0,.1-.06-.1-.06.1-.05-.1-.06.1-.06-.1,0,.1-.06-.1-.06.1-.05-.1-.06.1-.06-.1-.05.1-.06-.1-.06.1,0-.1-.06.1-.06-.1-.05.1-.06-.1-.06.1,0-.1-.06.1-.06-.1,0,.1-.06-.1-.06.1-.05-.1-.06.1-.06-.1,0,.1-.06-.1-.06.1,0-.1-.06.1-.06-.1-.05.1-.06-.1-.06.1,0-.1-.06.1-.06-.1,0,.1-.06-.1-.06.1-.05-.1-.06.1-.06-.1,0,.1-.06-.1-.06.1-.05-.1-.06.1-.06-.1,0,.1-.06-.1-.06.1,0-.1-.06.1-.06-.1-.05.1-.06-.1-.06.1,0-.1-.06.1-.06-.1,0,.1-.06-.1-.06.1-.05-.1-.06.1-.06-.1,0,.1-.06-.1-.06.1,0-.1-.06.1-.06-.1-.05.1-.06-.1-.06.1,0-.1-.06.1-.06-.1-.05.1-.06-.1-.06.1-.05-.1-.06.1-.06-.1,0,.1-.06-.1-.06.1-.05-.1-.06.1-.06-.1,0,.1-.06-.1-.06.1,0-.1-.06.1-.06-.1-.05.1-.06-.1-.06.1,0-.1-.06.1-.06-.1,0,.1-.06-.1-.06.1-.05-.1-.06.1-.06-.1,0,.1-.06-.1-.06.1,0-.1-.06.1-.06-.1-.05.1-.06-.1-.06.1,0-.1-.06.1-.06-.1-.05.1-.06-.1-.06.1,0-.1-.06.1-.06-.1,0,.1-.06-.1-.06.1-.05-.1-.06.1-.06-.1,0,.1-.06-.1-.06.1,0-.1-.06.1-.06-.1-.05.1-.06-.1-.06.1,0-.1-.06.1-.06-.1,0Z"/><path class="cls-2" d="M239.65,710.64h-.05l19.37,3a18.07,18.07,0,0,0,4.75,10.26l-4.55,2.62a14.24,14.24,0,0,1-.2-1.44l-19.37-3,.05-.11h-.05l.05-.1h-.05l.05-.1h-.05l.05-.11h-.05l.05-.1h-.05l.05-.1h-.05l.05-.11h-.05l.05-.1h-.05l.05-.1h-.05l.05-.11h-.05l.05-.1h-.05l.05-.1h-.05l.05-.11h-.05l.05-.1h-.05l.05-.1h-.05l.05-.11h-.05l.05-.1h-.05l.05-.1h-.05l.05-.11h-.05l.05-.1h-.05l.05-.1h-.05l.05-.11h-.05l.05-.1h-.05l.05-.1h-.05l.05-.11h-.05l.05-.1h-.05l.05-.1h-.05l.05-.11h-.05l.05-.1h-.05l.05-.1h-.05l.05-.11h-.05l.05-.1h-.05l.05-.1h-.05l.05-.11h-.05l.05-.1h-.05l.05-.1h-.05l.05-.11h-.05l.05-.1h-.05l.05-.1h-.05l.05-.11h-.05l.05-.1h-.05l.05-.1h-.05l.05-.11h-.05l.05-.1h-.05l.05-.1h-.05l.05-.11h-.05l.05-.1h-.05l.05-.1h-.05l.05-.11h-.05l.05-.1h-.05l.05-.1h-.05l.05-.11h-.05l.05-.1h-.05l.05-.1h-.05l.05-.11h-.05l.05-.1h-.05l.05-.1h-.05l.05-.11h-.05l.05-.1h-.05l.05-.1h-.05l.05-.11h-.05l.05-.1h-.05l.05-.11h-.05l.05-.11h-.05l.05-.1h-.05l.05-.1h-.05l.05-.11h-.05l.05-.1h-.05l.05-.11h-.05l.05-.11h-.05l.05-.1h-.05l.05-.11h-.05l.05-.11h-.05l.05-.1h-.05l.05-.11h-.05l.05-.11h-.05l.05-.1h-.05l.05-.11h-.05l.05-.11h-.05l.05-.1h-.05l.05-.11h-.05l.05-.11h-.05l.05-.1h-.05l.05-.11h-.05l.05-.11h-.05l.05-.1h-.05l.05-.11h-.05l.05-.11h-.05l.05-.1h-.05l.05-.11h-.05l.05-.11h-.05l.05-.1h-.05l.05-.11h-.05l.05-.11h-.05l.05-.1h-.05l.05-.11h-.05l.05-.11h-.05l.05-.1h-.05l.05-.11h-.05l.05-.11h-.05Z"/><path class="cls-2" d="M274.68,692.65l-.76-1.64H274l-.05-.1H274l-.05-.11H274l-.05-.11H274l-.05-.1H274l-.05-.11H274l-.05-.11H274l-.05-.1H274l-.05-.11H274l-.05-.11H274l-.05-.1H274l-.05-.11H274l-.05-.11H274l-.05-.1H274l-.05-.11H274l-.05-.11H274l-.05-.1H274l-.05-.11H274l-.05-.11H274l-.05-.1H274l-.05-.11H274l-.05-.11H274l-.05-.1H274l-.05-.11H274l-.05-.11H274l-.05-.1H274l-.05-.11H274l-.05-.11H274l-.05-.1H274l-.05-.11H274l-.05-.1H274l-.05-.1H274l-.05-.11H274l-.05-.1H274l-.05-.1H274l-.05-.11H274l-.05-.1H274l-.05-.1H274l-.05-.11H274l-.05-.1H274l-.05-.1H274l-.05-.11H274l-.05-.1H274l-.05-.1H274l-.05-.11H274l-.05-.1H274l-.05-.1H274l-.05-.11H274l-.05-.1H274l-.05-.1H274l-.05-.11H274l-.05-.1H274l-.05-.1H274l-.05-.11H274l-.05-.1H274l-.05-.1H274l-.05-.11H274l-.05-.1H274l-.05-.1H274l-.05-.11H274l-.05-.1H274l-.05-.1H274l-.05-.11H274l-.05-.1H274l-.05-.1H274l-.05-.11H274l-.05-.1H274l-.05-.1H274l-.05-.11H274l-.05-.1H274l-.05-.1H274l-.05-.11H274l-.05-.1H274l-.05-.1H274l-.05-.11H274l-.05-.1H274l-.05-.1H274l-.05-.11H274l-.05-.1H274l-.05-.1H274l-.05-.11H274l-.05-.1H274l-.05-.1H274l-.05-.11H274l-.05-.1H274l-.05-.1H274l-.05-.11H274l-.05-.1H274l-.05-.1H274l-.05-.11H274l-.05-.1H274l-.05-.1H274l-.05-.11H274l-.05-.1H274l-.05-.1H274l-.05-.11H274l-.05-.1H274l-.05-.1H274l-.05-.11H274l-.05-.1H274l-.05-.1H274l5.14,11.07a47.64,47.64,0,0,0-4.43,1.91Z"/><path class="cls-2" d="M347.55,709.45a18.64,18.64,0,0,0-4.54-8.83l14.17-8.18-.1.06.1.06-.1.05.1.06-.1.06.1,0-.1.06.1.06-.1.05.1.06-.1.06.1,0-.1.06.1.06-.1,0,.1.06-.1.06.1.05-.1.06.1.06-.1,0,.1.06-.1.06.1,0-.1.06.1.06-.1.05.1.06-.1.06.1,0-.1.06.1.06-.1,0,.1.06-.1.06.1.05-.1.06.1.06-.1,0,.1.06-.1.06.1.05-.1.06.1.06-.1,0,.1.06-.1.06.1,0-.1.06.1.06-.1.05.1.06-.1.06.1,0-.1.06.1.06-.1,0,.1.06-.1.06.1.05-.1.06.1.06-.1,0,.1.06-.1.06.1,0-.1.06.1.06-.1.05.1.06-.1.06.1,0-.1.06.1.06-.1.05.1.06-.1.06.1.05-.1.06.1.06-.1,0,.1.06-.1.06.1.05-.1.06.1.06-.1,0,.1.06-.1.06.1,0-.1.06.1.06-.1.05.1.06-.1.06.1,0-.1.06.1.06-.1,0,.1.06-.1.06.1.05-.1.06.1.06-.1,0,.1.06-.1.06.1,0-.1.06.1.06-.1.05.1.06-.1.06.1,0-.1.06.1.06-.1.05.1.06-.1.06.1,0-.1.06.1.06-.1,0,.1.06-.1.06.1.05-.1.06.1.06-.1,0,.1.06-.1.06.1,0-.1.06.1.06-.1.05.1.06-.1.06.1,0-.1.06.1.06-.1,0,.1.06-.1.06.1.05-.1.06.1.06-.1,0,.1.06-.1.06.1.05-.1.06.1.06-.1.05.1.06-.1.06.1,0-.1.06.1.06-.1.05.1.06-.1.06.1,0-.1.06.1.06-.1,0,.1.06-.1.06.1.05-.1.06.1.06-.1,0,.1.06-.1.06.1,0-.1.06.1.06-.1.05.1.06-.1.06.1,0-.1.06.1.06-.1,0,.1.06-.1.06.1.05-.1.06.1.06-.1,0,.1.06-.1.06.1.05-.1.06.1.06-.1,0,.1.06-.1.06.1,0-.1.06.1.06-.1.05.1.06Z"/><path class="cls-3" d="M365.81,639.83l-13.38-2.07-4.93,10.62,13.38,2.07a12.5,12.5,0,0,0,3.29,7.09l-9.79,5.65L367.85,671l9.79-5.65a49.45,49.45,0,0,0,12.28,1.89l3.58,7.73,18.4-2.85-3.58-7.72a29.14,29.14,0,0,0,9-5.19l13.37,2.07,4.93-10.63-13.38-2.07a12.46,12.46,0,0,0-3.28-7.08l9.79-5.66L415.27,628l-9.79,5.65a49.52,49.52,0,0,0-12.28-1.9l-3.59-7.72-18.4,2.84,3.59,7.73A28.83,28.83,0,0,0,365.81,639.83Zm14.83,3.37c8.36-6.83,37.52.7,21.83,12.61C394.11,662.63,365,655.11,380.64,643.2Z"/><path class="cls-2" d="M378.91,654.61c-14.83-17.16,37-19.21,26.48-1.15-6.6-6.72-21.06-6.72-27.67,0A9.33,9.33,0,0,0,378.91,654.61Z"/><path class="cls-2" d="M413.28,662a25.18,25.18,0,0,0,4-2.86l13.37,2.07,4.9-10.55h0l0,.08h0l0,.07h0l0,.07h0l0,.07h0l0,.07h0l0,.08h0l0,.08h0l0,.07h0l0,.07h0l0,.07h0l0,.07h0l0,.08h0l0,.08h0l0,.07h0l0,.07h0l0,.07h0l0,.07h0l0,.08h0l0,.07h0l0,.07h0l0,.07h0l0,.07h0l0,.07h0l0,.08h0l0,.07h0l0,.07h0l0,.07h0l0,.07h0l0,.08h0l0,.08h0l0,.07h0l0,.07h0l0,.07h0l0,.07h0l0,.08h0l0,.08h0l0,.07h0l0,.07h0l0,.07h0l0,.07h0l0,.08h0l0,.08h0l0,.07h0l0,.07h0l0,.07h0l0,.07h0l0,.08h0l0,.08h0l0,.07h0l0,.07h0l0,.07h0l0,.07h0l0,.08h0l0,.08h0l0,.07h0l0,.07h0l0,.07h0l0,.07h0l0,.08h0l0,.08h0l0,.07h0l0,.07h0l0,.07h0l0,.07h0l0,.08h0l0,.08h0l0,.07h0l0,.07h0l0,.07h0l0,.07h0l0,.08h0l0,.08h0l0,.07h0l0,.07h0l0,.07h0l0,.07h0l0,.08h0l0,.08h0l0,.07h0l0,.07h0l0,.07h0l0,.07h0l0,.08h0l0,.08h0l0,.07h0l0,.07h0l0,.07h0l0,.07h0l0,.08h0l0,.08h0l0,.07h0l0,.07h0l0,.07h0l0,.07h0l0,.08h0l0,.07h0l0,.07h0l0,.07h0l0,.07h0l0,.07h0l-4.93,10.63-13.37-2.07a26.5,26.5,0,0,1-5.93,3.87l.52,1.13-3.58-7.72A33.7,33.7,0,0,0,413.28,662Z"/><path class="cls-2" d="M367.85,671l9.79-5.65a49.45,49.45,0,0,0,12.28,1.89l3.58,7.73,18.4-2.85h0l0,.07h0l0,.08h0l0,.07h0l0,.07h0l0,.07h0l0,.07h0l0,.08h0l0,.08h0l0,.07h0l0,.07h0l0,.07h0l0,.07h0l0,.08h0l0,.08h0l0,.07h0l0,.07h0l0,.07h0l0,.07h0l0,.08h0l0,.08h0l0,.07h0l0,.07h0l0,.07h0l0,.07h0l0,.08h0l0,.08h0l0,.07h0l0,.07h0l0,.07h0l0,.07h0l0,.08h0l0,.08h0l0,.07h0l0,.07h0l0,.07h0l0,.07h0l0,.08h0l0,.08h0l0,.07h0l0,.07h0l0,.07h0l0,.07h0l0,.08h0l0,.08h0l0,.07h0l0,.07h0l0,.07h0l0,.07h0l0,.08h0l0,.08h0l0,.07h0l0,.07h0l0,.07h0l0,.07h0l0,.08h0l0,.08h0l0,.07h0l0,.07h0l0,.07h0l0,.07h0l0,.08h0l0,.08h0l0,.07h0l0,.07h0l0,.07h0l0,.07h0l0,.08h0l0,.07h0l0,.07h0l0,.07h0l0,.07h0l0,.07h0l0,.08h0l0,.07h0l0,.07h0l0,.07h0l0,.07h0l0,.07h0l0,.08h0l0,.07h0l0,.07h0l0,.07h0l0,.07h0l0,.08h0l0,.08h0l0,.07h0l0,.07h0l0,.07h0l0,.07h0l0,.08h0l0,.08h0l0,.07h0l0,.07h0l0,.07h0l0,.07h0l0,.08h0l0,.08h0l0,.07h0l0,.07h0l0,.07h0l0,.07-18.4,2.85-3.58-7.73a49,49,0,0,1-12.28-1.9l-9.79,5.66-13.47-7.78.07,0-.07,0,.07,0-.07,0,.07,0-.07,0,.07,0-.07,0,.07,0-.07,0,.07,0-.07,0,.07,0-.07,0,.07,0-.07,0,.07,0-.07,0,.07,0-.07,0,.07,0-.07,0,.07,0-.07,0,.07,0-.07,0,.07,0-.07,0,.07,0-.07,0,.07,0-.07,0,.07,0-.07,0,.07,0-.07,0,.07,0-.07,0,.07,0-.07,0,.07,0-.07,0,.07,0-.07,0,.07,0-.07,0,.07,0-.07,0,.07,0-.07,0,.07,0-.07,0,.07,0-.07,0,.07,0-.07,0,.07,0-.07,0,.07,0-.07,0,.07,0-.07,0,.07,0-.07,0,.07,0-.07,0,.07,0-.07,0,.07,0-.07,0,.07,0-.07,0,.07,0-.07,0,.07,0-.07,0,.07,0-.07,0,.07,0-.07,0,.07,0-.07,0,.07,0-.07,0,.07,0-.07,0,.07,0-.07,0,.07,0-.07,0,.07,0-.07,0,.07,0-.07,0,.07,0-.07,0,.07,0-.07,0,.07,0-.07,0,.07,0-.07,0,.07,0-.07,0,.07,0-.07,0,.07,0-.07,0,.07,0-.07,0,.07,0-.07,0,.07,0-.07,0,.07,0-.07,0,.07,0-.07,0,.07,0-.07,0,.07,0-.07,0,.07,0-.07,0,.07,0-.07,0,.07,0-.07,0,.07,0-.07,0,.07,0-.07,0,.07,0-.07,0,.07,0-.07,0,.07,0-.07,0,.07,0-.07,0,.07,0-.07,0,.07,0-.07,0,.07,0-.07,0,.07,0-.07,0,.07,0-.07,0,.07,0-.07,0,.07,0-.07,0,.07,0-.07,0,.07,0-.07,0,.07,0-.07,0,.07,0-.07,0,.07,0-.07,0,.07,0-.07,0,.07,0-.07,0,.07,0-.07,0,.07,0-.07,0,.07,0-.07,0,.07,0-.07,0,.07,0-.07,0,.07,0-.07,0,.07,0-.07,0,.07,0-.07,0,.07,0-.07,0,.07,0-.07,0,.07,0-.07,0,.07,0-.07,0,.07,0-.07,0,.07,0-.07,0,.07,0-.07,0,.07,0-.07,0,.07,0-.07,0Z"/><path class="cls-2" d="M347.54,648.39h0l13.38,2.07a12.5,12.5,0,0,0,3.29,7.09L361,659.35a8.46,8.46,0,0,1-.15-1l-13.38-2.07,0-.07h0l0-.07h0l0-.07h0l0-.07h0l0-.08h0l0-.08h0l0-.07h0l0-.07h0l0-.07h0l0-.07h0l0-.08h0l0-.07h0l0-.07h0l0-.07h0l0-.07h0l0-.07h0l0-.08h0l0-.07h0l0-.07h0l0-.07h0l0-.07h0l0-.08h0l0-.08h0l0-.07h0l0-.07h0l0-.07h0l0-.07h0l0-.08h0l0-.08h0l0-.07h0l0-.07h0l0-.07h0l0-.07h0l0-.08h0l0-.08h0l0-.07h0l0-.07h0l0-.07h0l0-.07h0l0-.08h0l0-.08h0l0-.07h0l0-.07h0l0-.07h0l0-.07h0l0-.08h0l0-.08h0l0-.07h0l0-.07h0l0-.07h0l0-.07h0l0-.08h0l0-.08h0l0-.07h0l0-.07h0l0-.07h0l0-.07h0l0-.08h0l0-.08h0l0-.07h0l0-.07h0l0-.07h0l0-.07h0l0-.08h0l0-.08h0l0-.07h0l0-.07h0l0-.07h0l0-.07h0l0-.08h0l0-.08h0l0-.07h0l0-.07h0l0-.07h0l0-.07h0l0-.08h0l0-.08h0l0-.07h0l0-.07h0l0-.07h0l0-.07h0l0-.08h0l0-.08h0l0-.07h0l0-.07h0l0-.07h0l0-.07h0l0-.08h0l0-.07h0l0-.07h0l0-.07h0l0-.07h0l0-.07h0l0-.08h0l0-.07h0l0-.07h0l0-.07h0l0-.07h0l0-.08h0l0-.08h0Z"/><path class="cls-2" d="M371.74,636l-.53-1.14h0l0-.07h0l0-.07h0l0-.07h0l0-.07h0l0-.08h0l0-.08h0l0-.07h0l0-.07h0l0-.07h0l0-.07h0l0-.08h0l0-.08h0l0-.07h0l0-.07h0l0-.07h0l0-.07h0l0-.08h0l0-.08h0l0-.07h0l0-.07h0l0-.07h0l0-.07h0l0-.08h0l0-.08h0l0-.07h0l0-.07h0l0-.07h0l0-.07h0l0-.08h0l0-.08h0l0-.07h0l0-.07h0l0-.07h0l0-.07h0l0-.08h0l0-.08h0l0-.07h0l0-.07h0l0-.07h0l0-.07h0l0-.08h0l0-.08h0l0-.07h0l0-.07h0l0-.07h0l0-.07h0l0-.08h0l0-.08h0l0-.07h0l0-.07h0l0-.07h0l0-.07h0l0-.08h0l0-.08h0l0-.07h0l0-.07h0l0-.07h0l0-.07h0l0-.08h0l0-.07h0l0-.07h0l0-.07h0l0-.07h0l0-.07h0l0-.08h0l0-.07h0l0-.07h0l0-.07h0l0-.07h0l0-.08h0l0-.08h0l0-.07h0l0-.07h0l0-.07h0l0-.07h0l0-.08h0l0-.08h0l0-.07h0l0-.07h0l0-.07h0l0-.07h0l0-.08h0l0-.08h0l0-.07h0l0-.07h0l0-.07h0l0-.07h0l0-.08h0l0-.08h0l0-.07h0l0-.07h0l0-.07h0l0-.07h0l0-.08h0l0-.08h0l0-.07h0l0-.07h0l0-.07h0l0-.07h0l0-.08h0l3.55,7.65a32.4,32.4,0,0,0-3.06,1.32Z"/><path class="cls-2" d="M422.09,647.56a12.94,12.94,0,0,0-3.14-6.09l9.79-5.66-.07,0,.07,0-.07,0,.07,0-.07,0,.07,0-.07,0,.07,0-.07,0,.07,0-.07,0,.07,0-.07,0,.07,0-.07,0,.07,0-.07,0,.07,0-.07,0,.07,0-.07,0,.07,0-.07,0,.07,0-.07,0,.07,0-.07,0,.07,0-.07,0,.07,0-.07,0,.07,0-.07,0,.07,0-.07,0,.07,0-.07,0,.07,0-.07,0,.07,0-.07,0,.07,0-.07,0,.07,0-.07,0,.07,0-.07,0,.07,0-.07,0,.07,0-.07,0,.07,0-.07,0,.07,0-.07,0,.07,0-.07,0,.07,0-.07,0,.07,0-.07,0,.07,0-.07,0,.07,0-.07,0,.07,0-.07,0,.07,0-.07,0,.07,0-.07,0,.07,0-.07,0,.07,0-.07,0,.07,0-.07,0,.07,0-.07,0,.07,0-.07,0,.07,0-.07,0,.07,0-.07,0,.07,0-.07,0,.07,0-.07,0,.07,0-.07,0,.07,0-.07,0,.07,0-.07,0,.07,0-.07,0,.07,0-.07,0,.07,0-.07,0,.07,0-.07,0,.07,0-.07,0,.07,0-.07,0,.07,0-.07,0,.07,0-.07,0,.07,0-.07,0,.07,0-.07,0,.07,0-.07,0,.07,0-.07,0,.07,0-.07,0,.07,0-.07,0,.07,0-.07,0,.07,0-.07,0,.07,0-.07,0,.07,0-.07,0,.07,0-.07,0,.07,0-.07,0,.07,0-.07,0,.07,0-.07,0,.07,0-.07,0,.07,0-.07,0,.07,0-.07,0,.07,0-.07,0,.07,0-.07,0,.07,0-.07,0,.07,0-.07,0,.07,0-.07,0,.07,0-.07,0,.07,0-.07,0,.07,0-.07,0,.07,0-.07,0,.07,0-.07,0,.07,0-.07,0,.07,0-.07,0,.07,0-.07,0,.07,0-.07,0,.07,0-.07,0,.07,0-.07,0,.07,0-.07,0,.07,0-.07,0,.07,0-.07,0,.07,0-.07,0,.07,0-.07,0,.07,0-.07,0,.07,0-.07,0,.07,0-.07,0,.07,0-.07,0,.07,0-.07,0,.07,0-.07,0,.07,0-.07,0,.07,0Z"/><path class="cls-4" d="M468,402c-22.22-29.43-21.8-73.85,1-102.84,15.47-19.68,39.4-32.15,52.06-53.75,13-22.16,11.75-49.83,20.85-73.85,13.41-35.4,51.17-60,89-57.93-84.44,83.95,95.07,155.62-99.08,269.6-10.16,6.45-20.54,13-32.21,15.95S475.24,411.56,468,402Z"/><path class="cls-5" d="M502.09,411a450.82,450.82,0,0,0,52.14-91.17c4.52.34,61-37.77,41.71-35.51a143.46,143.46,0,0,1-39,28.89,449.44,449.44,0,0,0,16-46.35c2.92-2.36,47.29-45.45,30.26-40.12A286,286,0,0,1,575.38,258,449.4,449.4,0,0,0,588,187.82a2.39,2.39,0,1,0-4.75-.47q-2.17,22-6.5,43.53l-14.45-36.26c-1.1-2.89-5.62-1.1-4.43,1.77.39.7,16.6,42.16,17.14,42.78a447.68,447.68,0,0,1-12.81,46.18,324.53,324.53,0,0,1-28.7-43.89c-16.48-8.09,24.11,46,26.84,49.29A445.74,445.74,0,0,1,541,337.46a221.42,221.42,0,0,1-24.35-40.08c-15.79-8.46,19.09,42,22,44.85a444.63,444.63,0,0,1-40.35,65.9C496.38,410.6,500.29,413.48,502.09,411Z"/><path class="cls-5" d="M626.67,267a86.6,86.6,0,0,0-.23-10.2c-75.47,5-145.48,72.48-146,148.84C538,388,624.14,333.63,626.67,267Z"/><path class="cls-6" d="M482.6,419c88.71,5.72,175.6-52.95,203.46-137.37C595,251.9,486,321.77,482.6,419Z"/><path class="cls-5" d="M462.06,437.23A469.1,469.1,0,0,1,539,359.72c-1.6-4.42,20.94-71.55,24-51.62a149.09,149.09,0,0,0-18.15,47,469.47,469.47,0,0,1,42-28.85c1.56-3.57,32.43-60,31.81-41.43A295.71,295.71,0,0,0,595,321.42a467.51,467.51,0,0,1,66.81-32.12,2.48,2.48,0,1,1,1.79,4.63q-21.41,8.26-41.81,18.58l40.33,4.42a2.48,2.48,0,1,1-.54,4.93c-.81-.19-46.84-4.94-47.61-5.32a462.77,462.77,0,0,0-42.71,25.64,338.08,338.08,0,0,0,51.93,16.59c12.66,14.26-52.8-11.4-56.83-13.23a464,464,0,0,0-41.41,32.38,230,230,0,0,0,46.9,13.28c12.84,13.48-47.38-7.48-51-9.6A462,462,0,0,0,466,440.29C464,442.85,460,439.73,462.06,437.23Z"/><path class="cls-7" d="M224.91,587.62c22.91-30.34,22.47-76.16-1-106.06-15.95-20.3-40.63-33.16-53.69-55.44-13.39-22.85-12.12-51.39-21.51-76.16-13.83-36.51-52.77-61.86-91.75-59.75,87.09,86.58-98,160.5,102.18,278.06,10.48,6.65,21.19,13.4,33.23,16.45S217.43,597.53,224.91,587.62Z"/><path class="cls-5" d="M189.73,596.91a465.08,465.08,0,0,1-53.77-94c-4.66.36-62.89-38.94-43-36.62a147.88,147.88,0,0,0,40.18,29.8,461.7,461.7,0,0,1-16.48-47.8c-3-2.44-48.77-46.88-31.21-41.38a295,295,0,0,0,28.72,32.29,462.69,462.69,0,0,1-13-72.39,2.46,2.46,0,1,1,4.9-.48q2.23,22.65,6.7,44.89l14.9-37.4a2.47,2.47,0,0,1,4.58,1.83c-.4.73-17.12,43.49-17.69,44.12a461,461,0,0,0,13.22,47.62,334.33,334.33,0,0,0,29.6-45.26c17-8.34-24.87,47.47-27.69,50.84a460.26,460.26,0,0,0,20,48.17,228.94,228.94,0,0,0,25.11-41.33c16.29-8.72-19.69,43.32-22.68,46.25a458.75,458.75,0,0,0,41.61,68C195.63,596.54,191.59,599.51,189.73,596.91Z"/><path class="cls-5" d="M61.24,448.47A92.16,92.16,0,0,1,61.48,438c77.84,5.18,150.05,74.75,150.63,153.52C152.68,573.21,63.85,517.15,61.24,448.47Z"/><path class="cls-6" d="M209.84,605.2C118.35,611.1,28.73,550.59,0,463.53,94,432.87,206.36,504.92,209.84,605.2Z"/><path class="cls-5" d="M231,624a483.3,483.3,0,0,0-79.31-79.93c1.66-4.57-21.59-73.8-24.76-53.24a153.52,153.52,0,0,1,18.71,48.5,481.86,481.86,0,0,0-43.31-29.75c-1.61-3.69-33.45-61.85-32.81-42.74a306.24,306.24,0,0,1,24.39,37.72A482.4,482.4,0,0,0,25,471.43a2.56,2.56,0,0,0-1.85,4.78q22.08,8.52,43.12,19.16l-41.6,4.56a2.56,2.56,0,0,0,.56,5.09c.84-.2,48.32-5.1,49.11-5.49a477.86,477.86,0,0,1,44,26.44,348.26,348.26,0,0,1-53.55,17.11c-13.62,14.78,54.8-11.82,58.61-13.65a478.25,478.25,0,0,1,42.71,33.4,237.65,237.65,0,0,1-48.37,13.7c-13.25,13.91,48.86-7.72,52.63-9.9A476.33,476.33,0,0,1,227,627.16C229,629.8,233.1,626.58,231,624Z"/><path class="cls-8" d="M523,37.4,141.13,257.86c-13.49,7.79-24.53,26.83-24.53,42.32l1.84,416.56c0,15.49,11,21.78,24.53,14L524.82,510.27c13.49-7.79,24.53-26.83,24.53-42.32L547.51,51.39C547.51,35.9,536.48,29.61,523,37.4Z"/><path class="cls-9" d="M518.44,40.9,145.76,256.06c-13.17,7.61-23.94,26.19-23.94,41.3l.62,412.13c0,15.11,10.77,21.26,23.94,13.65L519.06,508c13.18-7.61,24-26.2,24-41.31l-.62-412.12C542.39,39.43,531.62,33.29,518.44,40.9Z"/><path class="cls-10" d="M518.44,40.9,145.76,256.06c-35.14,18.69-21.5,79-23.94,110.35L542.39,123.59v-69C542.39,39.43,531.62,33.29,518.44,40.9Z"/><path class="cls-11" d="M215.46,273.93c6.86-2.53,12-21.75,0-16.76C208.6,259.7,203.49,278.92,215.46,273.93Z"/><path class="cls-11" d="M186.25,290.79c6.86-2.52,12-21.74,0-16.75C179.39,276.57,174.29,295.79,186.25,290.79Z"/><path class="cls-11" d="M157,307.65a16.12,16.12,0,0,0,7.31-12.59c-1.68-12.77-15.86,1.29-14.61,8.43C149.74,308.11,153,310,157,307.65Z"/><path class="cls-12" d="M197,559.12l26.33,16.16,61.56-65.93,24.55-89a8.94,8.94,0,0,0-3.94-10c-5.77-2.21-18.39-15.07-25.16-10.08C165.58,466.75,203,423.05,197,559.12Z"/><path class="cls-13" d="M223.28,575.28l87.89-49.76V421.26a4.32,4.32,0,0,0-6.45-3.77C192.32,482.6,229.33,439.61,223.28,575.28Z"/><path class="cls-14" d="M256.66,490.72c2.88-31.39,35.82-26,16,3.44l3.54,17.77-16.94,9.6,3.54-21.79C259.16,499.48,256.66,496.2,256.66,490.72Z"/><path class="cls-15" d="M230.46,446.92a5.65,5.65,0,0,0,5.65-5.66V403.07c.2-15.27,13.25-40.68,29.75-36.53,8.78,4.69,3.2,42,4.69,50.29-.12,7.33,11.42,7.35,11.3,0V378.64c0-10-3.71-17.92-10.18-21.8-24.63-11.52-47.08,23.07-46.86,46.23v38.19A5.65,5.65,0,0,0,230.46,446.92Z"/><path class="cls-16" d="M429,326.13c11.91-13,14.22-44.15-11-29.21-12.73,7.52-31.65,39.56-11,43.71-12.14,12.51-20.84,29.93-20.84,43.61l5.3-3.51c0-14.62,11.89-34.37,26.51-44s26.51-5.63,26.51,9l5.31-3.51C449.88,328.49,441.17,322.58,429,326.13Zm-11,5.26c-24.62,12.76-13.11-22.84,0-29.16,8-5.32,14.58-3.1,14.58,4.94S426.1,326.07,418.06,331.39Z"/><polygon class="cls-12" points="520.78 343.63 335.77 450.45 335.77 424.45 520.78 317.64 520.78 343.63"/><polygon class="cls-12" points="520.78 385.87 335.77 492.68 335.77 466.69 520.78 359.87 520.78 385.87"/><path class="cls-16" d="M405.35,443c-.15,7.21-11.46,6.8-11.1-.4C394.4,435.37,405.72,435.77,405.35,443Z"/><path class="cls-16" d="M426.17,430.74c-.15,7.21-11.46,6.81-11.1-.39C415.22,423.14,426.53,423.55,426.17,430.74Z"/><path class="cls-16" d="M447,418.52c-.11,3.06,2.94,5.46-.12,5.35a5.55,5.55,0,1,1,.4-11.1C450.33,412.88,447.1,415.45,447,418.52Z"/><path class="cls-16" d="M467.81,406.29c-.16,7.21-11.47,6.81-11.11-.39C456.85,398.69,468.17,399.09,467.81,406.29Z"/><path class="cls-16" d="M488.62,394.07c-.15,7.2-11.46,6.8-11.1-.4C477.67,386.46,489,386.87,488.62,394.07Z"/><path class="cls-17" d="M500.21,465.27,372.75,538.86a3.93,3.93,0,0,1-5.89-3.4V510.52a3.93,3.93,0,0,1,2-3.4l127.47-73.59a3.93,3.93,0,0,1,5.89,3.4C501.5,439.76,504.1,464.26,500.21,465.27Z"/><path class="cls-14" d="M407,510.05V494.94l3.56-2.06V504.7l5.08-2.93v3.3Z"/><path class="cls-14" d="M430.09,489.16c1.75,7-12.39,19.71-12.81,7.37C415.54,489.57,429.73,476.8,430.09,489.16ZM421,494.39c.77,9,7.85-2.59,4.66-6C422.86,487.16,420.9,491.1,421,494.39Z"/><path class="cls-14" d="M437.76,483.46l5.68-3.28v8.14c-16.27,15.76-14.18-12.48-.27-13.52L442,478.66c-6.38-1.14-9.73,14.85-1.93,9v-2.37l-2.35,1.36Z"/><path class="cls-14" d="M446.13,487.48V472.36l3.57-2.06v15.11Z"/><path class="cls-14" d="M465.09,476.53l-4.67,2.69-4.81-7.87-.08,0c.27,3,.15,7.69.17,10.55l-3.15,1.82V468.65L457.2,466,462,473.7l.06,0c-.21-2.8-.11-7.72-.13-10.43l3.17-1.83Z"/><path class="cls-18" d="M679.79,59.74,519.3,152.39c-5.67,3.28-10.31,11.28-10.31,17.79v132.5c0,6.5,4.64,9.15,10.31,5.88L679.79,215.9c5.67-3.28,10.31-11.28,10.31-17.79V65.61C690.1,59.11,685.46,56.46,679.79,59.74Z"/><path class="cls-19" d="M676.91,64.76,523.54,153.3c-5.42,3.13-9.85,10.78-9.85,17V296.92c0,6.22,4.43,8.75,9.85,5.62L676.91,214c5.42-3.13,9.86-10.78,9.86-17V70.37C686.77,64.15,682.33,61.63,676.91,64.76Z"/><path class="cls-14" d="M602.64,152.9c7.1-7.49,8.05-25.74-6.4-17.05-7.6,4.6-18.38,22.72-6.41,25.52-7.09,7.31-12.17,17.48-12.17,25.47l3.09-2.05c0-8.54,7-20.07,15.49-25.72s15.48-3.29,15.48,5.25l3.1-2C614.82,154.28,609.73,150.83,602.64,152.9Zm-6.4,3.08c-14.1,7.18-7.82-13.43,0-17,4.69-3.11,8.51-1.81,8.51,2.88S600.93,152.87,596.24,156Z"/><polygon class="cls-14" points="670.34 161.42 531 241.87 531 222.29 670.34 141.84 670.34 161.42"/><polygon class="cls-14" points="670.34 192.1 531 272.55 531 252.97 670.34 172.53 670.34 192.1"/><path class="cls-16" d="M583.4,235.11c-.11,5.43-8.63,5.13-8.36-.3S583.68,229.69,583.4,235.11Z"/><path class="cls-16" d="M599.08,225.91c-.11,5.42-8.63,5.12-8.36-.3C590.83,220.18,599.36,220.48,599.08,225.91Z"/><path class="cls-16" d="M614.76,216.7c-.11,5.42-8.63,5.12-8.36-.3C606.51,211,615,211.28,614.76,216.7Z"/><path class="cls-16" d="M630.44,207.49c-.12,5.43-8.64,5.12-8.36-.3C622.19,201.76,630.71,202.07,630.44,207.49Z"/><path class="cls-16" d="M646.12,198.28c-.12,5.43-8.64,5.12-8.36-.3C637.87,192.55,646.39,192.86,646.12,198.28Z"/><path class="cls-20" d="M221.47,800.25c5.15,28.29-86.27,57-91.5,22.79C124.82,794.75,216.24,766.07,221.47,800.25Z"/><path class="cls-20" d="M651,734.15c6.48,35.57-108.48,71.64-115.06,28.65C529.41,727.23,644.37,691.16,651,734.15Z"/><path class="cls-21" d="M197.54,532.33c14.17,5.82,14.78,39.65,17.93,44,4.95,6.77,25,32.48,27.42,36.62s-6.81,10.8-9.73,7.83L203,590.49C196.63,587,198.93,538.43,197.54,532.33Z"/><path class="cls-2" d="M144.89,801.77s1.91-72.43,1.91-80.14-8.11-59.43-.68-83.13l56.37,5.24c3.85,31.14-7,79.53-6.34,139.3l-22.07,2.09c-1.66-7,5.68-88.29,3.22-103.37-7.53,20.49-13.11,102-13.94,121.43A180.28,180.28,0,0,0,144.89,801.77Z"/><path class="cls-22" d="M130.84,585.09c-3-17.85,7.7-35.6,33.53-46.23,48-24.08,42,10.07,41.21,42.5-2.77,19.76-3.91,52.46-2.21,64.82.34,2.46-7.07,8.63-22.45,12-11.15,2.43-36.55,1.57-39-8.75l1.46-60Z"/><path class="cls-23" d="M188.11,542.63c.28,9.85-24.22,9.85-23.93,0C163.9,532.77,188.4,532.77,188.11,542.63Z"/><path class="cls-23" d="M186.81,545.89c-.54-.45-21.64,1.09-20.78-.92V523h21.26v22.41A.47.47,0,0,1,186.81,545.89Z"/><path class="cls-24" d="M168.35,523c0,9.74,5.74,18.4,15,21.53a3,3,0,0,0,4-2.84V523Z"/><path class="cls-23" d="M195.17,513.76c-.94,14.09-3.6,25.1-10.83,25.1-10.73,0-18.31-11.27-18.31-25.4s.61-21.83,11.34-21.83S196.09,499.92,195.17,513.76Z"/><path class="cls-25" d="M166,533.1c.22.58-.9-25,8-24.62,1.36-.3,11.91,3,14.5,2.69,3.34-.4,5.93-6.47,6.62-1.84C202.71,480.56,139.81,482.72,166,533.1Z"/><path class="cls-23" d="M171.21,519.46c1.19,17.92-16.4-4.1-4.89-6.27C169,513.19,171.21,516,171.21,519.46Z"/><path class="cls-23" d="M197.12,644.27c-6.65.1-8.11-8.25-1.49-9.58,2.67-.53,5.4-.82,7.62-1.79l3.41-5.23c4.75-5.63,8.21-5.93,3.47,1.84,0,0-2.89,4.88.73,3.13,3.13-1.51,11-14.56,10.55-4.89C220.93,638.6,206.12,644.36,197.12,644.27Z"/><path class="cls-21" d="M130.56,578.88c5.5,38.52-13.2,74.92,66.15,67.15,0,0,1.63-8.51.83-14.15-9.31-.56-37.95-.5-44.36-10.39-5.76-17.85,3.75-44.36-22.62-42.61Z"/><path class="cls-25" d="M174.26,784.05s.17,8.62,0,10.86c1.08,2.92,31.74,24.79,40,13.5a4.43,4.43,0,0,0-.69-6.29,116.64,116.64,0,0,1-18.79-19Z"/><path class="cls-25" d="M146.32,801.44c-11.14,37.85,35.05,43.06,18.45,11.84-.86-2.24-2.76-11.84-2.76-11.84Z"/><path class="cls-23" d="M187.15,534.25c-1-1.56,2.12-5.84,3.9-3.6C191.81,532.68,188.77,536.21,187.15,534.25Z"/><polygon class="cls-26" points="213.3 628.6 226.36 627.24 245.75 605.45 232.69 606.81 213.3 628.6"/><polygon class="cls-27" points="213.3 628.6 210.13 625.12 229.53 603.33 232.69 606.81 213.3 628.6"/><polygon class="cls-27" points="245.75 605.45 242.58 601.97 229.53 603.33 232.69 606.81 245.75 605.45"/><path class="cls-23" d="M241.69,610c-2.25,3.9-13.9,2-15.63,4.89-.69,1.86,3.07,1.85,3.07,1.85s5.92,0,5.63.52c-1.26,1.65-12.22.27-12.19,2.92-.22,2.34,8.78.73,8.62,1.61s-7.22,1.66-7.81,2.06-.06,1.2,2.61,1.65c11,2.94,24.08-10.07,18.59-18.75Z"/><path class="cls-25" d="M172.86,527.23h0c-1.58-5.39-4.41-14,0-18.37h-4.51v13.85A4.51,4.51,0,0,0,172.86,527.23Z"/><path class="cls-23" d="M498.47,464.92c-.62-4.21-1.44-13.39-4.35-18.27-3.06-3.32-.33,11.31-7.23,5.13-1.86-2.33-3.73-8.51-5.42-11.51s-9.65,7.36-8.65,12.92c.76,10.34,11.09,16.23,17.85,19.61Z"/><path class="cls-25" d="M604.64,734.67c-1.9,5.09-29.79.47-29.6,9.44.48,19.39,36.64,16.19,50.76,13.48,5.45-1.43,3.11-10.18,1.65-16.78C624.68,732.45,604.64,734.67,604.64,734.67Z"/><path class="cls-25" d="M578.72,741.71c-1.9,5.09-29.79.47-29.6,9.44-.25,17.54,39,13,50.23,14.9,5.25-.72,3.07-10.44,3.41-16.71C602.11,740.55,578.72,741.71,578.72,741.71Z"/><path class="cls-28" d="M625.61,588.09c-.27,27.19,3.08,122.84,4.46,150.95,0,0-15.92,8-28.28,2.52l-7.08-144.89Z"/><path class="cls-2" d="M603.29,592.9c-.63,33.57,1.12,135.09,2,157.18-18.19,2.06-29.75-7.84-29.75-7.84,3.21-46.58-5.75-121.67-6.41-152.43Z"/><path class="cls-21" d="M636.6,480.46s11.67,36.33,9.15,55.56a102.77,102.77,0,0,1-20.14,13.05Z"/><path class="cls-23" d="M573.13,446.87c.6,33.32,40.65,33.2,41.08-.1C613.61,413.46,573.55,413.57,573.13,446.87Z"/><path class="cls-22" d="M608.41,466.46s-14.82-1-26.45,7.12c-.34,5.11-21.17,11-22.72,12.09,0,0,10.75,72.55,4.92,105.51,0,0,25.06,19.57,64.2,0,0,0,5.72-89.89,8.24-110.72C636.6,480.46,630.07,472.39,608.41,466.46Z"/><path class="cls-21" d="M559.24,485.67,530,492.39l-31.22-31.84s-11,3.39-13.18,12.77l37.25,42.38,45.8-4S579.6,488.87,559.24,485.67Z"/><path class="cls-25" d="M586.22,420.36S563.8,425,570,436.91c3.63,7,25.09,9.31,25.09,9.31s-11.37,6.24-3,9.14c0,0,1.34,11.06,16.56,10.09C616.42,459.21,630,415.61,586.22,420.36Z"/><path class="cls-29" d="M274.74,59.25c1.14,8.34-3.45,18.29-10.23,22.2-19.72,8.64-16.79-24.84-4.1-30.15C267.19,47.38,273.61,51,274.74,59.25Zm-11,16.83c4.41-2.54,7.32-8.89,6.63-14.32-3.35-14.33-18.31-.27-15.84,9.14.74,5.42,4.87,7.69,9.21,5.18"/><path class="cls-2" d="M71.55,238.43c1.14,8.34-3.44,18.28-10.23,22.2-19.72,8.64-16.78-24.84-4.1-30.15C64,226.55,70.42,230.14,71.55,238.43Zm-11,16.83c4.41-2.54,7.33-8.89,6.63-14.33-3.35-14.32-18.31-.26-15.83,9.15.73,5.42,4.87,7.68,9.2,5.18"/><path class="cls-30" d="M612,35.69c1.14,8.35-3.45,18.29-10.23,22.2-19.72,8.64-16.79-24.83-4.1-30.14C604.47,23.82,610.89,27.41,612,35.69Zm-11,16.83c4.41-2.54,7.33-8.89,6.64-14.32-3.35-14.33-18.31-.27-15.84,9.14.73,5.42,4.87,7.69,9.2,5.18"/><path class="cls-31" d="M144.05,164.09c-4,2.12-3.75,6.75-7.32,8.89-2.53,1.48-3.23-.25-5.67-.55-.95-.08-3.66.46-3.48,2.19.08.54.49.77.92.53a3.12,3.12,0,0,1,2.87-.41c10.23,5.28,8.44-13.83,18.59-8.15,5.84.06,6.25-7.25,10.13-9.69,3.27-1.89,5,2.19,8.39-.17,3.11-1.69,3.86-4.83,5.49-7.23.52-1.15,2.69-1.55,2.55-3.13a.59.59,0,0,0-.92-.5c-4.47,2.12-4.43,10.42-10.16,9.28-1.69-.81-3.55-1.53-5.61-.17-4.5,2.12-4.43,10.42-10.18,9.28C148,163.45,146.1,162.73,144.05,164.09Z"/><path class="cls-2" d="M392.49,42.46C382,47.41,382.23,66.6,368.88,64c-3.89-1.92-8.24-3.54-13-.39-1.88.76-2.26,5.75.61,4.47,3.05-1.72,4.78-1.53,6.67-.93C384.58,78.63,383.38,42.5,399.73,46c3.84,1.83,8.1,3.59,12.82.51,13.41-8,10.11-28.86,30.23-19.4,10.12.35,15.11-11.8,19.06-18.49,1.23-2.66,6.25-3.6,5.92-7.25A1.36,1.36,0,0,0,465.62.24c-10.35,4.89-10.26,24.15-23.55,21.51-3.9-1.88-8.21-3.56-13-.41-10.43,4.92-10.26,24.16-23.58,21.52C401.61,41,397.26,39.32,392.49,42.46Z"/></g></g></g></svg>