<?xml version="1.0" standalone="no"?>
<!DOCTYPE svg PUBLIC "-//W3C//DTD SVG 20010904//EN"
 "http://www.w3.org/TR/2001/REC-SVG-20010904/DTD/svg10.dtd">
<svg version="1.0" xmlns="http://www.w3.org/2000/svg"
 width="223.000000pt" height="345.000000pt" viewBox="0 0 223.000000 345.000000"
 preserveAspectRatio="xMidYMid meet">

<g transform="translate(0.000000,345.000000) scale(0.100000,-0.100000)"
fill="#000000" stroke="none">
<path d="M1500 2735 c-10 -12 -10 -15 0 -15 10 0 9 -4 -1 -17 -7 -10 -1 -7 14
6 29 27 38 42 10 20 -15 -12 -16 -12 -10 4 8 21 3 22 -13 2z"/>
<path d="M1297 2527 c-3 -8 1 -14 8 -14 7 0 11 6 8 14 -3 7 -6 13 -8 13 -2 0
-5 -6 -8 -13z"/>
<path d="M1330 2531 c0 -6 4 -13 10 -16 6 -3 7 1 4 9 -7 18 -14 21 -14 7z"/>
<path d="M1891 2004 c0 -11 3 -14 6 -6 3 7 2 16 -1 19 -3 4 -6 -2 -5 -13z"/>
<path d="M1908 1854 c4 -109 1 -145 -17 -215 -26 -106 -87 -228 -148 -299 -91
-105 -146 -145 -296 -211 -77 -34 -161 -68 -185 -76 -87 -26 -286 -9 -355 29
-12 7 -25 11 -29 10 -5 -1 -8 3 -8 9 0 6 -7 9 -14 6 -10 -4 -13 -1 -10 7 8 20
-14 30 -33 14 -15 -11 -15 -11 -6 6 15 27 -14 61 -36 43 -12 -10 -13 -9 -1 13
12 23 12 24 -4 11 -14 -12 -16 -12 -10 2 3 10 -2 21 -14 28 -11 7 -18 18 -15
25 2 6 0 15 -5 18 -5 3 -8 -6 -6 -20 2 -23 0 -24 -34 -19 -21 4 -47 11 -60 17
-21 11 -21 12 -5 37 16 25 16 26 -3 10 -10 -9 -25 -14 -31 -12 -7 3 -13 -1
-13 -8 0 -7 3 -9 7 -6 3 4 15 -5 25 -20 10 -16 18 -24 18 -19 0 5 9 -1 20 -14
18 -21 20 -21 20 -4 0 15 2 16 9 4 6 -8 7 -18 5 -22 -3 -5 2 -11 10 -14 9 -3
13 -11 9 -17 -3 -5 -1 -7 4 -4 6 4 13 1 16 -6 8 -21 142 -83 242 -112 131 -38
252 -44 343 -16 68 20 206 80 302 130 64 34 179 153 229 238 68 115 93 206 98
353 2 82 -1 144 -10 180 -12 53 -13 49 -9 -76z m-1163 -634 c3 -5 1 -10 -5
-10 -7 0 -10 -6 -7 -13 3 -8 -1 -14 -9 -14 -7 0 -11 5 -7 10 3 5 -5 7 -18 3
-13 -3 -18 -3 -10 0 11 5 11 8 0 16 -10 7 -5 8 14 3 19 -4 26 -2 22 5 -3 5 -2
10 4 10 5 0 13 -4 16 -10z m50 -70 c3 -6 -1 -7 -9 -4 -18 7 -21 14 -7 14 6 0
13 -4 16 -10z"/>
<path d="M500 1365 c-7 -8 -10 -16 -6 -16 31 -6 51 5 40 23 -8 12 -20 10 -34
-7z m30 1 c0 -2 -7 -7 -16 -10 -8 -3 -12 -2 -9 4 6 10 25 14 25 6z"/>
<path d="M556 1301 c-3 -4 6 -6 19 -3 14 2 25 6 25 8 0 8 -39 4 -44 -5z"/>
<path d="M1480 670 l0 -200 150 0 150 0 0 35 0 35 -105 0 -105 0 0 165 0 165
-45 0 -45 0 0 -200z"/>
<path d="M1840 670 l0 -200 145 0 145 0 0 35 0 35 -100 0 -100 0 0 50 0 50 95
0 95 0 0 35 0 35 -95 0 -95 0 0 45 0 45 100 0 100 0 0 35 0 35 -145 0 -145 0
0 -200z"/>
<path d="M100 666 l0 -196 55 0 c29 0 77 5 105 11 95 20 149 104 137 211 -14
118 -65 158 -209 166 l-88 5 0 -197z m220 129 c36 -35 54 -92 47 -158 -8 -91
-68 -137 -174 -137 l-63 0 0 166 0 166 79 -3 c72 -4 83 -7 111 -34z"/>
<path d="M571 838 c-5 -13 -39 -97 -75 -188 -36 -90 -66 -168 -66 -172 0 -4 6
-8 13 -8 6 0 21 26 33 58 l20 57 96 3 95 3 23 -61 c15 -41 28 -60 40 -60 14 0
3 34 -61 193 -78 194 -99 225 -118 175z m63 -112 c20 -50 36 -94 36 -98 0 -4
-36 -8 -79 -8 l-79 0 32 83 c18 45 35 91 39 101 4 10 9 17 11 15 2 -2 20 -44
40 -93z"/>
<path d="M827 853 c-18 -18 1 -23 98 -25 l106 -3 -111 -165 c-60 -91 -110
-170 -110 -177 0 -10 32 -13 130 -13 109 0 130 2 130 15 0 12 -19 15 -110 15
-60 0 -110 3 -110 6 0 3 48 76 106 161 59 85 109 164 111 174 5 18 -2 19 -114
19 -66 0 -123 -3 -126 -7z"/>
<path d="M1157 853 c-18 -18 1 -23 98 -25 l106 -3 -111 -165 c-60 -91 -110
-170 -110 -177 0 -10 32 -13 130 -13 109 0 130 2 130 15 0 12 -19 15 -110 15
-60 0 -110 3 -110 6 0 3 48 76 106 161 59 85 109 164 111 174 5 18 -2 19 -114
19 -66 0 -123 -3 -126 -7z"/>
<path d="M723 360 c-13 -5 -23 -14 -23 -19 0 -6 8 -7 17 -4 12 5 15 2 10 -10
-15 -38 -27 -98 -23 -106 3 -5 18 -11 33 -14 21 -4 37 2 65 24 20 16 42 29 47
29 15 0 14 13 -5 59 -19 49 -64 64 -121 41z m67 -35 c0 -8 -4 -15 -10 -15 -5
0 -10 7 -10 15 0 8 5 15 10 15 6 0 10 -7 10 -15z m0 -70 c-7 -9 -15 -13 -18
-10 -3 2 1 11 8 20 7 9 15 13 18 10 3 -2 -1 -11 -8 -20z m-39 -18 c-10 -9 -11
-8 -5 6 3 10 9 15 12 12 3 -3 0 -11 -7 -18z"/>
<path d="M1265 360 c-11 -17 -35 -105 -35 -127 0 -19 6 -23 29 -23 16 0 35 7
42 17 13 15 11 16 -13 11 l-27 -5 20 49 c10 27 19 58 19 68 0 21 -24 28 -35
10z"/>
<path d="M1600 348 c-28 -31 -47 -95 -33 -116 13 -21 46 -27 72 -12 16 8 21
21 21 50 0 21 -5 42 -12 46 -16 10 -40 -27 -33 -53 3 -12 1 -25 -5 -28 -15 -9
-11 65 5 100 10 19 13 22 9 8 -4 -18 -2 -22 10 -17 20 8 21 44 1 44 -8 0 -24
-10 -35 -22z"/>
<path d="M943 301 c-44 -42 -39 -80 14 -95 16 -5 25 -1 33 14 13 25 5 39 -12
22 -7 -7 -16 -12 -21 -12 -5 0 2 10 17 21 17 14 26 29 24 43 -4 28 -29 31 -55
7z m18 -44 c-13 -13 -15 1 -4 30 7 17 8 17 11 -1 2 -10 -1 -23 -7 -29z"/>
<path d="M1077 313 c-9 -8 -9 -50 -1 -80 5 -16 13 -21 35 -21 22 1 28 5 25 15
-3 8 1 28 9 44 9 16 13 34 9 40 -3 6 -14 -6 -24 -27 -14 -30 -19 -34 -19 -17
-2 42 -17 63 -34 46z"/>
<path d="M1445 288 c1 -31 -9 -48 -29 -48 -8 0 -5 18 9 53 12 30 -24 8 -41
-25 -12 -23 -13 -33 -3 -44 15 -18 28 -18 51 3 17 15 18 15 18 0 0 -12 8 -17
26 -17 24 0 25 2 19 33 -12 52 -24 77 -37 77 -8 0 -13 -13 -13 -32z"/>
<path d="M1297 283 c-4 -3 -7 -13 -7 -22 1 -13 3 -13 11 2 11 19 8 33 -4 20z"/>
</g>
</svg>
