<?xml version="1.0"?>
<svg xmlns="http://www.w3.org/2000/svg" id="Capa_1" enable-background="new 0 0 512 512" height="512px" viewBox="0 0 512 512" width="512px"><g><g><path d="m429.5 120v-120h-347v120h-82.5v392h512v-392zm-279.566 196-119.934 119.934v-239.868zm-106.754 149.18 127.967-127.967 31.82 31.82c14.166 14.166 33 21.967 53.033 21.967s38.867-7.801 53.033-21.967l31.82-31.82 127.966 127.967c4.829 4.829 8.421 10.564 10.627 16.82h-446.893c2.206-6.256 5.798-11.991 10.627-16.82zm318.886-149.18 119.934-119.934v239.868zm106.754-149.18-39.32 39.32v-56.14h49.947c-2.206 6.256-5.798 11.991-10.627 16.82zm-69.32-136.82v206.14l-111.68 111.68c-8.5 8.499-19.8 13.18-31.82 13.18s-23.32-4.681-31.82-13.18l-111.68-111.68v-206.14zm-317 176.14-39.319-39.32c-4.829-4.829-8.421-10.564-10.627-16.82h49.946z" data-original="#000000" class="active-path" data-old_color="#000000" fill="#4B5B6D"/></g></g> </svg>
